<svg width="29" height="27" viewBox="0 0 29 27" fill="none" xmlns="http://www.w3.org/2000/svg">
<g clip-path="url(#clip0)">
<path d="M8.53295 0L0.00326538 5.57546L5.90104 10.3037L14.5016 4.98696L8.53295 0ZM0.00326538 15.0322L8.53295 20.6077L14.5016 15.6201L5.90104 10.3037L0.00326538 15.0322ZM14.5016 15.6201L20.4702 20.6077L28.9999 15.0322L23.1021 10.3037L14.5016 15.6201Z" fill="#007EE5"/>
<path d="M28.9983 5.57546L20.4686 0L14.5 4.98699L23.1006 10.3037L28.9983 5.57546ZM14.5175 16.6932L8.53138 21.6661L5.96979 19.9917V21.8686L14.5175 27L23.0653 21.8686V19.9916L20.5037 21.6661L14.5175 16.6932Z" fill="#007EE5"/>
</g>
<defs>
<clipPath id="clip0">
<rect width="29" height="27" fill="white"/>
</clipPath>
</defs>
</svg>
