<svg width="16" height="22" viewBox="0 0 16 22" fill="none" xmlns="http://www.w3.org/2000/svg">
<path d="M6.45605 13.2402L6.55859 15.8184C6.55859 17.1367 6.24609 18.2109 5.62109 19.041H15.8164L15.8018 22H0.435547V19.041H1.63672C2.01758 18.9531 2.31055 18.6406 2.51562 18.1035C2.73047 17.5566 2.83789 16.8389 2.83789 15.9502L2.73535 13.2402H0.376953V10.3252H2.64746L2.53027 6.78027C2.53027 4.80762 3.14062 3.25 4.36133 2.10742C5.58203 0.964844 7.18359 0.393555 9.16602 0.393555C11.1484 0.393555 12.7061 0.925781 13.8389 1.99023C14.9717 3.05469 15.5381 4.48535 15.5381 6.28223H11.9492C11.9492 5.35449 11.6904 4.63672 11.1729 4.12891C10.665 3.61133 9.95215 3.35254 9.03418 3.35254C8.16504 3.35254 7.47656 3.66992 6.96875 4.30469C6.4707 4.93945 6.22168 5.76465 6.22168 6.78027L6.35352 10.3252H10.9092V13.2402H6.45605Z" fill="white"/>
</svg>
